. 
  
http://www.torrenting.com/        :     Greatest Movie Tracker on The Net!!!
 
http://www.Torrenting.com          :     Once & For all ;)


               www . Torrenting . Com 

(((((((((((((= Enjoy No RAR releases =))))))))))))))))))))


...................................NFO:....................................

.[img]http://img232.imageshack.us/img232/527/bluecrush2boxart.jpg[/img]

[color=blue][size=5][b]Blue.Crush.2.2011.BDRip.XVID.AC3.HQ.Hive-CM8[/b][/size][/color]


[b]Thx Hive


CM8 Doing It Right The First Time :D


Source: Bluray

Video: 720x400 @bitrate 1800 2pass
Audio: DTS to AC3 5.1 @448
Sample: yes included[/b]


[url]http://www.imdb.com/title/tt1630626/[/url]


General
Complete name                    : Blue.Crush.2.2011.BDRip.XVID.AC3.HQ.Hive-CM8.avi
Format                           : AVI
Format/Info                      : Audio Video Interleave
File size                        : 1.77 GiB
Duration                         : 1h 52mn
Overall bit rate                 : 2 252 Kbps
Writing application              : Nandub v1.0rc2
Writing library                  : Nandub build 1853/release

Video
ID                               : 0
Format                           : MPEG-4 Visual
Format profile                   : Advanced Simple@L5
Format settings, BVOP            : 1
Format settings, QPel            : Yes
Format settings, GMC             : No warppoints
Format settings, Matrix          : Default (H.263)
Muxing mode                      : Packed bitstream
Codec ID                         : XVID
Codec ID/Hint                    : XviD
Duration                         : 1h 52mn
Bit rate                         : 1 795 Kbps
Width                            : 720 pixels
Height                           : 400 pixels
Display aspect ratio             : 16:9
Frame rate                       : 23.976 fps
Color space                      : YUV
Chroma subsampling               : 4:2:0
Bit depth                        : 8 bits
Scan type                        : Progressive
Compression mode                 : Lossy
Bits/(Pixel*Frame)               : 0.260
Stream size                      : 1.41 GiB (80%)
Writing library                  : XviD 1.2.1 (UTC 2008-12-04)

Audio
ID                               : 1
Format                           : AC-3
Format/Info                      : Audio Coding 3
Mode extension                   : CM (complete main)
Codec ID                         : 2000
Duration                         : 1h 52mn
Bit rate mode                    : Constant
Bit rate                         : 448 Kbps
Channel(s)                       : 6 channels
Channel positions                : Front: L C R, Side: L R, LFE
Sampling rate                    : 48.0 KHz
Bit depth                        : 16 bits
Compression mode                 : Lossy
Stream size                      : 361 MiB (20%)
Alignment                        : Split accross interleaves
Interleave, duration             : 42 ms (1.00 video frame)
Interleave, preload duration     : 500 ms



Sharni Vinson	 ... 	Tara
Elizabeth Mathis	... 	Pushy
Gideon Emery	... 	Joel
Rodger Halston	... 	Cowboy
Sasha Jackson	... 	Dana


Haunted by the memory of her deceased mother, Dana leaves Malibu behind and heads 
to South Africa to fulfill her mother's dream of surfing Jefferys Bay. 



[img]http://img841.imageshack.us/img841/8099/bbllblbl.png[/img]
[img]http://img11.imageshack.us/img11/1478/69629393.png[/img]
[img]http://img860.imageshack.us/img860/9648/blblbl.png[/img]
[img]http://img827.imageshack.us/img827/9165/bbllblblbl.png[/img]
[img]http://img94.imageshack.us/img94/8923/bbllblblblbl.png[/img]
[img]http://img831.imageshack.us/img831/1017/bbllblblblblbl.png[/img]
[img]http://img862.imageshack.us/img862/8555/bbllblblblblblbbllbl.png[/img]
[img]http://img695.imageshack.us/img695/2982/bbllblblblblblbl.png[/img]
[img]http://img839.imageshack.us/img839/5226/bbllblblblblblblbl.png[/img]
[img]http://img5.imageshack.us/img5/9214/bbllbbllblblblblbbllbl.png[/img]






Greetz

ViSiON,SANTi,MAGNET,THC,T0XiC,iNK,LKRG,IMAGiNE,WBZ,FLAWL3SS,NOVA
Vik,OneTwo,Rapeseed,D2U,SAFC,goldadvance,MEMORY100,KaN1vE,Unevano,Pinnz,Wayne,Mr Hive
and all P2P groups 
Great Work Guys :D

FYS

CM8@hushmail.com